<svg width="669" height="548" viewBox="0 0 669 548" fill="none" xmlns="http://www.w3.org/2000/svg">
<g clip-path="url(#clip0_96_2025)">
<path d="M623.902 477.045L625.045 451.325C636.97 444.952 650.27 441.585 663.79 441.518C645.182 456.731 647.507 486.058 634.891 506.517C630.907 512.868 625.546 518.241 619.203 522.238C612.861 526.235 605.7 528.753 598.252 529.606L582.68 539.141C580.543 527.229 581.014 514.995 584.06 503.282C587.107 491.57 592.656 480.657 600.327 471.296C604.682 466.087 609.675 461.447 615.19 457.486C618.919 467.32 623.902 477.045 623.902 477.045Z" fill="#F2F2F2"/>
<path d="M387.761 545.543C379.829 544.979 377.761 546.543 365.761 545.543H343.761L346.623 492.895L381.257 506.773L553.371 510.998L553.27 511.29C553.192 511.515 545.551 533.867 551.524 542.332L551.771 542.682L551.288 542.687L393.4 544.134C391.677 544.15 389.471 545.665 387.761 545.543Z" fill="#F2F2F2"/>
<path d="M396.688 546.231C381.367 545.141 365.501 551.098 352.26 544.373L341.676 545.014L341.646 544.925C341.564 544.681 336.564 505.339 346.672 490.086L347.117 489.414L347.464 493.027L344.132 542.035L351.518 539.57C369.455 548.013 390.787 542.437 411.317 542.36L551.031 541.843C553.958 541.833 556.396 543.833 556.474 546.302L556.482 546.543L405.127 546.531C402.305 546.531 399.492 546.431 396.688 546.231Z" fill="#CCCCCC"/>
<path d="M543.667 521.616L386.44 518.491L386.279 518.431L349.132 504.509L349.834 502.636L386.821 516.499L543.707 519.616L543.667 521.616Z" fill="#E6E6E6"/>
<path d="M542.828 530.035L385.601 526.91L385.441 526.85L348.293 512.928L348.995 511.055L385.983 524.918L542.868 528.035L542.828 530.035Z" fill="#E6E6E6"/>
<path d="M541.989 538.455L384.762 535.329L384.602 535.269L347.454 521.346L348.156 519.473L385.144 533.337L542.029 536.455L541.989 538.455Z" fill="#E6E6E6"/>
<path d="M397.774 511.541C383.197 510.557 368.984 506.546 356.041 499.766L345.143 493.986L345.428 491.128C345.507 490.709 345.739 490.334 346.078 490.075C346.418 489.816 346.841 489.692 347.266 489.726L348.228 489.738L494.857 491.896C504.453 492.015 513.962 493.741 522.989 497.002L554.937 508.601L554.92 508.769C554.652 511.462 551.938 513.542 548.74 513.505L404.306 511.812C402.121 511.786 399.944 511.696 397.774 511.541Z" fill="#E6E6E6"/>
<path d="M554.63 509.22L554.597 509.218L378.763 505.189L378.641 505.133L346.939 490.452L347.261 489.961L348.224 489.973L379.057 504.259L553.261 508.247L554.657 508.28L554.63 509.22Z" fill="#CCCCCC"/>
<path d="M417.934 491L415.702 490.968L365.311 490.223L362.923 490.189C374.437 502.448 399.895 505.514 437.211 500.765L417.934 491Z" fill="#CCCCCC"/>
<path d="M559.613 197.813L562.687 204.964L557.663 230.359L506.408 223.233L506.817 192.266L507.846 185.484L559.613 197.813Z" fill="#FFB6B6"/>
<path d="M586.094 526.943H574.786L569.404 483.327H586.094V526.943Z" fill="#FFB6B6"/>
<path d="M552.458 541.705C552.459 542.986 552.968 544.214 553.874 545.12C554.78 546.025 556.008 546.535 557.289 546.536H578.802L582.511 538.881L583.951 546.536H592.059L589.78 519.194L586.094 518.978L573.71 518.241L571.714 518.116V525.862L554.545 537.724C553.901 538.169 553.374 538.764 553.011 539.457C552.648 540.151 552.458 540.922 552.458 541.705Z" fill="#2F2E41"/>
<path d="M481.576 476.943H470.268L463.616 412.73L484.863 411.461L481.576 476.943Z" fill="#FFB6B6"/>
<path d="M447.939 491.705C447.941 492.986 448.45 494.214 449.356 495.12C450.261 496.025 451.49 496.535 452.771 496.536H474.284L477.992 488.881L479.432 496.536H487.541L485.261 469.194L481.973 469.001L469.373 468.241L467.196 468.116V475.862L450.026 487.724C449.382 488.169 448.856 488.764 448.492 489.457C448.129 490.151 447.939 490.922 447.939 491.705Z" fill="#2F2E41"/>
<path d="M590.894 489.331H590.85L588.675 418.412C590.082 415.698 590.797 412.677 590.754 409.62C590.712 406.562 589.914 403.563 588.432 400.888L588.121 400.325L588.928 396.582C589.965 391.774 589.489 386.764 587.566 382.237L585.537 316.083C592.785 269.109 558.242 238.474 558.242 238.474L561.417 213.854L505.547 215.123L506.497 238.474L495.388 276.642C489.542 333.602 450.194 369.404 456.175 423.873C456.187 424.03 456.164 424.187 456.106 424.333C455.5 426.179 455.286 428.13 455.479 430.063C455.673 431.996 456.269 433.867 457.23 435.555C457.479 435.986 457.65 436.457 457.735 436.947C458.968 446.496 459.128 434.417 460.761 443.882L460.443 444.043C459.299 444.438 458.809 446.022 459.347 447.582C459.885 449.143 461.249 450.087 462.393 449.692L492.26 450.012C493.404 449.617 493.895 448.032 493.357 446.472C492.818 444.912 491.454 443.967 490.31 444.362L488.452 445.302L491.561 435.131L492.65 434.114C493.173 433.626 493.578 433.027 493.835 432.361C494.093 431.695 494.197 430.979 494.139 430.267C494.081 429.555 493.863 428.866 493.501 428.25C493.139 427.634 492.642 427.109 492.048 426.712L495.145 410.184L494.705 397.685L495.611 383.504L534.8 326.718L550.655 405.156L566.85 490.12C566.473 490.461 566.189 490.893 566.026 491.375C565.863 491.857 565.827 492.373 565.921 492.873C566.07 493.572 566.458 494.197 567.017 494.641C567.577 495.085 568.273 495.321 568.987 495.308H590.973C591.434 495.307 591.888 495.2 592.301 494.995C592.714 494.79 593.074 494.493 593.353 494.126C593.632 493.759 593.823 493.333 593.91 492.88C593.998 492.428 593.979 491.961 593.857 491.517C593.671 490.878 593.281 490.317 592.745 489.922C592.21 489.527 591.559 489.32 590.894 489.331Z" fill="#2F2E41"/>
<path d="M571.343 77.1399C571.344 81.6678 570.235 86.1269 568.111 90.1257C565.987 94.1245 562.914 97.5408 559.161 100.075C555.409 102.609 551.092 104.183 546.589 104.659C542.086 105.134 537.535 104.498 533.336 102.804C529.137 101.111 525.417 98.4127 522.504 94.9462C519.591 91.4798 517.574 87.3513 516.629 82.9232C515.684 78.495 515.84 73.9026 517.084 69.549C518.329 65.1954 520.623 61.2138 523.765 57.9538L523.898 57.8211C524.119 57.5887 524.34 57.3564 524.572 57.135C524.574 57.135 524.575 57.1348 524.577 57.1342C524.578 57.1337 524.579 57.1328 524.58 57.1318C524.581 57.1308 524.582 57.1295 524.583 57.1282C524.583 57.1268 524.584 57.1254 524.584 57.1239C524.901 56.8923 525.194 56.6291 525.458 56.3384C529.192 51.1203 533.426 46.7449 543.681 49.4784C558.446 53.4137 571.343 61.8596 571.343 77.1399Z" fill="#2F2E41"/>
<path d="M419.391 65.2985C419.329 66.7785 419.591 68.2542 420.161 69.6217C420.73 70.9892 421.592 72.2153 422.687 73.2135C423.781 74.2117 425.081 74.9578 426.495 75.3993C427.909 75.8408 429.403 75.9669 430.87 75.7687L502.208 134.315L513.104 115.163L439.556 63.6361C439.059 61.1921 437.684 59.015 435.689 57.5175C433.695 56.02 431.221 55.3061 428.735 55.511C426.25 55.7159 423.926 56.8255 422.204 58.6294C420.481 60.4333 419.481 62.8062 419.391 65.2986V65.2985Z" fill="#FFB6B6"/>
<path d="M532.33 151.582C532.33 151.582 532.308 149.473 520.968 149.554C506.891 149.655 468.122 129.445 471.514 110.412C469.904 111.139 468.097 111.31 466.379 110.898C464.661 110.486 463.129 109.514 462.024 108.135L480.898 89.9639C486.82 90.3639 486.881 94.3269 486.373 96.6026L501.542 102.63L541.048 125.327L534.072 148.126L532.33 151.582Z" fill="#FBC705"/>
<path d="M536.866 106.736C549.676 106.736 560.061 96.3506 560.061 83.5402C560.061 70.7297 549.676 60.3447 536.866 60.3447C524.055 60.3447 513.67 70.7297 513.67 83.5402C513.67 96.3506 524.055 106.736 536.866 106.736Z" fill="#FFB7B7"/>
<path d="M504.986 198.912C503.705 200.622 503.051 202.72 503.133 204.856C503.216 206.991 504.03 209.032 505.44 210.638C505.451 211.319 505.553 211.976 506.517 214.415C506.643 214.651 506.791 214.875 506.959 215.084C506.991 215.135 507.025 215.184 507.061 215.231C508.077 216.544 509.489 217.495 511.087 217.942L553.547 229.793L559.16 231.358L560.147 231.63L560.691 223.963C561.954 222.917 562.8 221.453 563.076 219.837C563.353 218.221 563.042 216.559 562.2 215.152L561.417 213.859L565.976 201.6L566.418 200.386L578.042 169.098L578.054 167.011L578.076 164.856L578.19 149.819C578.195 145.079 577.102 140.403 574.997 136.157C572.892 131.911 569.831 128.21 566.055 125.345C562.616 122.718 558.652 120.861 554.431 119.902L554.34 119.891L549.748 113.71L531.115 115.57L529.573 118.734L527.701 122.544L514.195 130.585L509.579 141.313L506.46 148.571C501.629 152.041 498.749 156.498 497.921 161.806C496.152 173.078 504.045 184.362 504.986 185.655L505.224 198.595L504.986 198.912Z" fill="#FBC705"/>
<path d="M561.141 89.6212C560.931 89.5879 560.72 89.5436 560.51 89.5104C556.892 88.8687 553.274 88.2381 549.667 87.5852L549.335 79.4085L544.964 86.7332C534.995 90.0415 525.668 88.1716 516.893 84.0445C513.999 82.6706 511.191 81.1224 508.484 79.4085C507.593 65.5799 513.184 56.727 523.588 57.6554C523.968 57.6893 524.24 57.3014 524.572 57.1353C524.574 57.1353 524.575 57.135 524.577 57.1345C524.578 57.1339 524.579 57.1331 524.58 57.1321C524.581 57.1311 524.582 57.1298 524.583 57.1285C524.583 57.1271 524.583 57.1257 524.583 57.1242C525.148 56.8587 525.723 56.6042 526.298 56.3719C530.803 54.6115 535.714 54.1657 540.462 55.0863C545.21 56.0069 549.599 58.256 553.119 61.5722C560.2 68.3328 563.387 79.497 561.141 89.6212Z" fill="#2F2E41"/>
<path d="M560.51 89.5103C560.51 89.5103 553.639 63.8625 524.185 57.9428C524.152 57.9319 524.041 57.8876 523.897 57.8213C523.809 57.7659 523.698 57.7105 523.588 57.6553C523.92 57.4671 524.24 57.3013 524.572 57.1351C524.574 57.1352 524.575 57.1349 524.577 57.1343C524.578 57.1338 524.579 57.133 524.58 57.1319C524.581 57.1309 524.582 57.1297 524.583 57.1283C524.583 57.127 524.583 57.1255 524.583 57.1241C524.871 56.8585 525.159 56.593 525.458 56.3385L526.298 56.3717C526.298 56.3717 555.852 51.6914 560.51 89.5103Z" fill="#FD6584"/>
<path d="M571.841 251.188C571.296 251.655 570.633 251.962 569.924 252.076C569.216 252.191 568.49 252.109 567.825 251.838C566.503 251.277 565.328 250.418 564.393 249.328C560.578 245.326 557.852 240.413 556.475 235.057L557.748 232.794C557.248 230.002 557.718 227.124 559.08 224.636C560.441 222.149 562.613 220.202 565.234 219.118C566.725 218.486 568.378 218.342 569.956 218.707C570.738 218.902 571.453 219.304 572.026 219.871C572.599 220.439 573.008 221.15 573.21 221.931C573.7 224.352 571.683 226.539 569.64 227.929C566.081 230.344 561.967 231.816 557.684 232.207C562.923 235.16 567.452 239.224 570.953 244.115C571.763 245.135 572.359 246.307 572.709 247.561C572.877 248.19 572.885 248.851 572.734 249.484C572.582 250.118 572.276 250.703 571.841 251.188Z" fill="#2F2E41"/>
<path d="M278.647 547.359H667.928C668.259 547.359 668.576 547.228 668.81 546.994C669.044 546.76 669.175 546.443 669.175 546.112C669.175 545.782 669.044 545.464 668.81 545.23C668.576 544.997 668.259 544.865 667.928 544.865H278.647C278.316 544.865 277.999 544.997 277.765 545.23C277.531 545.464 277.4 545.782 277.4 546.112C277.4 546.443 277.531 546.76 277.765 546.994C277.999 547.228 278.316 547.359 278.647 547.359Z" fill="#CCCCCC"/>
<path d="M382.032 226.769V227.421C380.63 225.778 379.199 224.149 377.783 222.52C377.188 221.84 376.593 221.16 375.998 220.48C373.477 217.619 370.941 214.767 368.392 211.925C365.828 209.092 363.264 206.26 360.672 203.441C360.049 202.761 359.426 202.081 358.789 201.401C358.278 200.83 357.724 200.3 357.131 199.815C356.533 199.317 355.846 198.937 355.106 198.696C354.254 198.46 353.356 198.45 352.5 198.668C351.522 198.894 350.587 199.248 349.639 199.546C348.661 199.872 347.698 200.183 346.721 200.495C344.766 201.132 342.826 201.77 340.871 202.407C340.847 202.417 340.822 202.421 340.797 202.421C340.771 202.421 340.746 202.416 340.723 202.406C340.699 202.396 340.678 202.382 340.66 202.364C340.642 202.345 340.628 202.324 340.619 202.3L340.616 202.294C340.605 202.267 340.6 202.238 340.601 202.209C340.602 202.18 340.61 202.151 340.623 202.126C340.637 202.1 340.656 202.078 340.679 202.06C340.702 202.043 340.729 202.03 340.758 202.025C341.239 201.869 341.735 201.713 342.231 201.557C344.199 200.906 346.154 200.268 348.123 199.631C349.1 199.305 350.077 198.993 351.055 198.682C351.961 198.338 352.919 198.146 353.888 198.115C355.47 198.229 356.954 198.925 358.052 200.07C358.661 200.636 359.214 201.231 359.766 201.84C360.417 202.549 361.069 203.257 361.721 203.965C364.341 206.826 366.942 209.697 369.525 212.577C372.117 215.466 374.685 218.361 377.23 221.259C377.414 221.472 377.598 221.684 377.783 221.897C379.213 223.511 380.615 225.14 382.032 226.769Z" fill="white"/>
<path d="M356.911 202.424C356.376 201.735 355.663 201.205 354.849 200.892L354.043 200.92C360.365 210.757 368.647 219.185 378.373 225.677C371.219 217.926 364.065 210.175 356.911 202.424Z" fill="white"/>
<path d="M488.841 304.655L456.754 132.845C456.205 130.013 454.71 127.451 452.514 125.58C450.318 123.709 447.551 122.64 444.668 122.547C444.408 122.542 444.149 122.542 443.89 122.547L422.031 123.331L419.678 123.418L408.769 123.81L406.416 123.891L399.399 124.144L257.901 129.224C257.688 129.236 257.469 129.236 257.256 129.23L225.548 128.567L213.814 128.325L213.44 128.319L204.779 128.135L129.314 126.566L109.306 126.145L99.44 125.943L97.076 125.891L85.8265 125.661L83.4682 125.609L71.9592 125.373L69.6009 125.321L56.956 125.055L54.9726 125.015L43.6942 124.779L41.9126 124.744H41.6531C38.659 124.756 35.7655 125.827 33.4843 127.766C31.2031 129.705 29.6809 132.389 29.187 135.342L0.166705 313.627C-0.127995 315.433 -0.0265331 317.281 0.464038 319.044C0.954608 320.807 1.82254 322.442 3.00777 323.837C4.193 325.231 5.66715 326.351 7.32811 327.119C8.98907 327.886 10.7971 328.284 12.627 328.284H179.288C181.741 328.291 184.128 329.078 186.103 330.533L189.263 332.874C191.441 334.477 194.072 335.345 196.776 335.353C228.964 326.858 262.806 326.858 294.994 335.353C296.654 335.357 298.298 335.032 299.831 334.397C301.364 333.762 302.756 332.828 303.926 331.651C305.926 329.651 308.596 328.462 311.421 328.313L477.09 319.583C478.887 319.489 480.642 319.013 482.24 318.185C483.837 317.357 485.239 316.198 486.352 314.784C487.464 313.371 488.262 311.736 488.692 309.989C489.121 308.242 489.172 306.423 488.841 304.655V304.655Z" fill="#CCCCCC"/>
<path d="M443.441 277.864C443.228 283.686 440.712 289.185 436.446 293.153C432.18 297.121 426.513 299.232 420.691 299.023C411.071 298.684 399.591 298.514 387.131 298.773C346.441 299.643 295.321 305.244 264.571 325.384C260.706 327.92 256.139 329.173 251.521 328.964C251.181 328.944 250.851 328.924 250.511 328.894C245.723 328.456 241.211 326.457 237.671 323.204C220.731 307.704 181.881 288.934 92.951 287.614C92.581 287.614 92.221 287.594 91.861 287.574C88.9806 287.392 86.1642 286.645 83.5728 285.375C80.9814 284.105 78.6657 282.336 76.7581 280.17C74.8506 278.005 73.3885 275.484 72.4556 272.753C71.5226 270.022 71.1371 267.134 71.321 264.254L80.061 125.544L81.371 104.754L83.671 68.3835C83.9029 64.7208 85.5205 61.2837 88.1952 58.7707C90.8699 56.2576 94.4009 54.857 98.071 54.8535H98.161L151.141 55.1635C173.461 56.1735 191.948 59.0168 206.601 63.6935C211.606 65.2457 216.476 67.2056 221.161 69.5536C227.56 72.6559 233.309 76.9491 238.101 82.2036C241.086 85.5602 245.157 87.7587 249.601 88.4136C250.29 88.5165 250.985 88.5799 251.681 88.6036C255.779 88.7731 259.823 87.6158 263.211 85.3036C297.821 62.1136 368.351 60.3536 407.301 61.3536C412.748 61.4806 417.953 63.6308 421.902 67.3853C425.85 71.1398 428.26 76.2297 428.661 81.6636L430.241 102.354L431.811 122.984L440.871 242.214L443.391 275.384C443.453 276.209 443.469 277.037 443.441 277.864Z" fill="#F2F2F2"/>
<path d="M106.131 103.663C138.058 93.4766 173.677 96.1734 203.924 110.524C212.554 114.597 220.704 119.617 228.225 125.491C230.353 127.161 233.38 124.174 231.23 122.487C203.449 100.939 168.543 90.7029 133.525 93.835C123.837 94.7019 114.272 96.6234 105.001 99.5654C102.406 100.393 103.515 104.497 106.131 103.663H106.131Z" fill="#3F3D56"/>
<path d="M281.815 127.139C311.499 111.537 347.045 108.134 379.319 116.991C388.52 119.51 397.412 123.045 405.831 127.532C408.243 128.819 410.392 125.152 407.976 123.863C377.216 107.45 340.292 103.671 306.702 112.821C297.331 115.378 288.267 118.948 279.671 123.47C277.249 124.743 279.394 128.411 281.815 127.139Z" fill="#3F3D56"/>
<path d="M281.815 155.467C311.499 139.865 347.045 136.462 379.319 145.319C388.52 147.838 397.412 151.373 405.831 155.86C408.243 157.147 410.392 153.48 407.976 152.191C377.216 135.778 340.292 131.999 306.702 141.149C297.331 143.706 288.267 147.277 279.671 151.798C277.249 153.071 279.394 156.739 281.815 155.467L281.815 155.467Z" fill="#3F3D56"/>
<path d="M409.015 182.277C409.037 181.912 408.95 181.549 408.763 181.235C408.576 180.921 408.299 180.67 407.968 180.516C383.326 167.612 355.387 162.379 327.746 165.489C327.573 165.503 327.413 165.531 327.226 165.545H327.219C327.049 165.56 326.88 165.585 326.713 165.621C310.272 167.513 294.324 172.428 279.671 180.12C279.352 180.311 279.087 180.581 278.904 180.904C278.72 181.227 278.624 181.593 278.624 181.965V234.811C278.629 235.136 278.708 235.455 278.856 235.746C279.003 236.036 279.214 236.288 279.473 236.485C279.732 236.681 280.033 236.816 280.352 236.879C280.671 236.942 281 236.932 281.315 236.849C281.966 236.662 282.618 236.482 283.284 236.308C298.097 232.299 313.304 229.92 328.634 229.215C328.96 229.201 329.285 229.187 329.625 229.173C342.111 228.637 354.62 229.086 367.035 230.518C367.295 230.533 367.555 230.561 367.812 230.601C368.45 230.671 369.102 230.747 369.74 230.83C369.996 230.858 370.239 230.886 370.475 230.927C372.957 231.239 375.419 231.593 377.887 231.974C381.451 232.543 385.016 233.176 388.58 233.874C388.802 233.916 389.031 233.971 389.259 234.013C394.98 235.15 400.673 236.468 406.338 237.924C406.654 238.005 406.984 238.014 407.303 237.949C407.623 237.885 407.923 237.749 408.182 237.551C408.441 237.353 408.652 237.099 408.799 236.809C408.945 236.518 409.024 236.197 409.029 235.871V182.36C409.031 182.332 409.026 182.303 409.015 182.277Z" fill="#3F3D56"/>
<path d="M331.077 168.371C329.521 167.608 327.736 167.451 326.071 167.931C325.335 168.207 324.661 168.626 324.089 169.164C323.516 169.703 323.056 170.35 322.736 171.067C322.159 172.443 321.789 173.897 321.638 175.381C321.55 175.965 321.545 176.702 322.131 176.974C322.344 177.052 322.575 177.069 322.797 177.025C323.019 176.981 323.225 176.877 323.393 176.725C323.696 176.426 323.946 176.077 324.131 175.694C325.15 174.109 326.553 172.806 328.208 171.906C329.864 171.005 331.72 170.537 333.605 170.544L335.174 171.169C333.94 170.057 332.562 169.116 331.077 168.371Z" fill="#FF6582"/>
<path d="M348.056 180.55C346.839 178.758 345.396 176.845 343.137 176.259C340.521 175.582 337.833 176.928 335.553 178.256C328.774 182.204 322.209 186.51 315.887 191.154L315.894 191.224L330.569 190.323C334.103 190.106 337.759 189.859 340.883 188.371C342.004 187.668 343.258 187.201 344.566 186.999C345.378 187.043 346.173 187.248 346.905 187.6C347.637 187.953 348.293 188.448 348.833 189.055C355.596 195.466 357.554 205.269 365.141 210.901C360.313 200.32 354.597 190.167 348.056 180.55Z" fill="white"/>
<path d="M329.628 229.172C329.288 229.186 328.962 229.2 328.636 229.215C326.271 228.365 323.849 227.614 321.399 226.962C319.812 226.537 318.197 226.155 316.583 225.829C314.755 225.433 312.914 225.121 311.073 224.852C307.567 224.342 304.034 224.044 300.492 223.96C300.465 223.963 300.438 223.96 300.413 223.952C300.387 223.943 300.363 223.93 300.343 223.912C300.323 223.894 300.307 223.872 300.296 223.847C300.285 223.822 300.279 223.796 300.279 223.769C300.279 223.742 300.285 223.715 300.296 223.69C300.307 223.665 300.323 223.643 300.343 223.625C300.363 223.607 300.387 223.594 300.413 223.585C300.438 223.577 300.465 223.574 300.492 223.577C300.945 223.577 301.399 223.591 301.838 223.62C305.387 223.751 308.925 224.096 312.433 224.654C314.26 224.951 316.087 225.305 317.9 225.702C319.543 226.07 321.186 226.481 322.801 226.934C325.109 227.586 327.385 228.332 329.628 229.172Z" fill="white"/>
<path d="M370.477 230.927C370.236 230.885 369.995 230.856 369.74 230.828C368.763 230.021 367.772 229.256 366.738 228.505C365.449 227.57 364.117 226.692 362.758 225.871C359.746 224.043 356.602 222.442 353.352 221.083C348.214 218.944 342.896 217.266 337.46 216.069C331.26 214.711 324.983 213.727 318.665 213.123C312.347 212.471 306.002 212.075 299.656 211.678C299.387 211.664 299.373 211.268 299.656 211.282C300.45 211.338 301.243 211.381 302.05 211.437C308.466 211.834 314.883 212.287 321.257 213.01C327.577 213.687 333.846 214.775 340.024 216.267C345.299 217.567 350.446 219.335 355.406 221.551C358.259 222.832 361.022 224.304 363.678 225.956C365.363 227.018 366.993 228.151 368.55 229.355C369.202 229.865 369.854 230.375 370.477 230.927Z" fill="white"/>
<path d="M367.814 230.603C367.556 230.561 367.296 230.533 367.035 230.517C366.738 230.277 366.426 230.05 366.115 229.823C363.934 228.263 361.659 226.839 359.302 225.56C357.161 224.397 354.963 223.342 352.715 222.401C347.579 220.256 342.261 218.577 336.823 217.387C330.623 216.029 324.346 215.045 318.027 214.441C311.71 213.79 305.365 213.393 299.019 212.997C298.75 212.968 298.75 212.586 299.019 212.6C299.827 212.657 300.62 212.699 301.413 212.756C307.829 213.152 314.246 213.606 320.619 214.328C326.939 215.005 333.208 216.094 339.387 217.586C344.662 218.883 349.81 220.651 354.769 222.869C356.639 223.719 358.466 224.64 360.251 225.645C362.897 227.098 365.426 228.756 367.814 230.603Z" fill="white"/>
<path d="M389.259 234.015C389.032 233.972 388.806 233.916 388.579 233.873C388.324 233.604 388.083 233.321 387.843 233.038C386.625 231.635 385.421 230.219 384.231 228.788C379.543 223.208 375.095 217.457 370.902 211.593C367.305 206.579 363.891 201.466 360.662 196.253C359.118 193.789 357.63 191.296 356.172 188.775C355.039 186.82 353.934 184.861 352.857 182.897C352.546 182.33 352.248 181.763 351.951 181.197C351.256 179.865 350.562 178.52 349.826 177.203C349.026 175.589 347.85 174.19 346.398 173.123C345.673 172.638 344.833 172.35 343.962 172.288C342.734 172.292 341.526 172.604 340.449 173.194C332.525 176.884 325.05 181.471 318.169 186.863C311.449 192.089 305.373 198.094 300.068 204.752C299.898 204.95 299.529 204.766 299.685 204.553C300.322 203.76 300.974 202.967 301.625 202.188C306.725 196.157 312.467 190.699 318.75 185.914C318.764 185.899 318.792 185.885 318.807 185.871C319.359 185.432 319.911 185.007 320.478 184.596C323.986 182.013 327.637 179.63 331.413 177.458C333.339 176.339 335.308 175.276 337.319 174.271C337.815 174.016 338.325 173.761 338.834 173.52C339.345 173.265 339.855 173.024 340.364 172.783C341.374 172.269 342.477 171.965 343.608 171.891C347.546 171.835 349.571 175.801 350.973 178.477C351.412 179.313 351.866 180.149 352.305 180.984C354.005 184.143 355.775 187.288 357.616 190.389C358.735 192.316 359.897 194.228 361.072 196.126C362.758 198.831 364.486 201.508 366.285 204.171C366.285 204.173 366.285 204.175 366.286 204.177C366.286 204.178 366.287 204.18 366.289 204.181C366.29 204.183 366.291 204.184 366.293 204.184C366.295 204.185 366.297 204.185 366.298 204.186H366.299C368.381 207.33 370.548 210.418 372.786 213.491C376.625 218.746 380.647 223.883 384.854 228.902C386.299 230.63 387.767 232.334 389.259 234.015Z" fill="white"/>
<path d="M338.726 171.46L338.334 171.632C337.437 170.116 336.179 168.846 334.672 167.934C333.165 167.022 331.457 166.496 329.698 166.403C323.899 165.991 318.805 169.856 318.342 175.017C318.154 177.142 318.769 179.261 320.066 180.955L319.702 181.17C318.352 179.406 317.711 177.199 317.907 174.986C318.389 169.611 323.694 165.587 329.733 166.016C331.564 166.112 333.343 166.66 334.912 167.61C336.481 168.559 337.791 169.882 338.726 171.46Z" fill="#FF6582"/>
<path d="M310.072 181.903C308.55 181.241 306.892 180.951 305.236 181.056C303.58 181.162 301.973 181.66 300.547 182.509C305.752 183.308 310.911 184.38 316.003 185.72C313.895 184.62 312.245 182.897 310.072 181.903Z" fill="white"/>
<path d="M300.517 182.504L299.944 182.919C300.138 182.773 300.34 182.637 300.547 182.509L300.517 182.504Z" fill="white"/>
<path d="M317.776 184.91C317.548 184.683 317.321 184.456 317.091 184.23C315.328 182.311 313.205 180.757 310.842 179.657C309.64 179.151 308.349 178.884 307.044 178.874C305.696 178.905 304.363 179.164 303.101 179.639C302.507 179.85 301.927 180.09 301.355 180.345C300.701 180.638 300.06 180.95 299.421 181.265C298.222 181.855 297.038 182.472 295.87 183.114C293.546 184.393 291.295 185.769 289.116 187.242C287.987 188.007 286.881 188.796 285.799 189.61C284.792 190.367 283.805 191.143 282.839 191.94C282.632 192.11 282.324 191.835 282.53 191.666C282.785 191.455 283.043 191.245 283.3 191.038C284.028 190.452 284.767 189.878 285.518 189.315C286.887 188.286 288.292 187.298 289.732 186.349C291.971 184.872 294.288 183.496 296.682 182.219C297.878 181.582 299.091 180.972 300.32 180.388C300.691 180.212 301.067 180.039 301.446 179.876C302.314 179.487 303.209 179.163 304.124 178.906C305.437 178.53 306.81 178.41 308.168 178.552C309.468 178.718 310.73 179.107 311.899 179.701C314.215 180.999 316.304 182.665 318.085 184.634C318.271 184.82 317.964 185.096 317.776 184.91Z" fill="white"/>
<path d="M106.131 131.991C138.058 121.805 173.677 124.502 203.924 138.852C212.554 142.925 220.704 147.945 228.225 153.82C230.353 155.489 233.38 152.503 231.23 150.815C203.449 129.267 168.543 119.031 133.525 122.163C123.837 123.03 114.272 124.952 105.001 127.894C102.406 128.722 103.515 132.826 106.131 131.991L106.131 131.991Z" fill="#3F3D56"/>
<path d="M106.131 160.319C138.058 150.133 173.677 152.83 203.924 167.18C212.554 171.253 220.704 176.273 228.225 182.148C230.353 183.817 233.38 180.831 231.23 179.143C203.449 157.595 168.543 147.359 133.525 150.491C123.837 151.358 114.272 153.28 105.001 156.222C102.406 157.05 103.515 161.154 106.131 160.319L106.131 160.319Z" fill="#3F3D56"/>
<path d="M106.131 188.647C138.058 178.461 173.677 181.158 203.924 195.508C212.554 199.581 220.704 204.601 228.225 210.476C230.353 212.146 233.38 209.159 231.23 207.471C203.449 185.923 168.543 175.687 133.525 178.819C123.837 179.686 114.272 181.608 105.001 184.55C102.406 185.378 103.515 189.482 106.131 188.647L106.131 188.647Z" fill="#3F3D56"/>
<path d="M106.131 216.975C138.058 206.789 173.677 209.486 203.924 223.836C212.554 227.91 220.704 232.93 228.225 238.804C230.353 240.474 233.38 237.487 231.23 235.799C203.449 214.252 168.543 204.015 133.525 207.147C123.837 208.014 114.272 209.936 105.001 212.878C102.406 213.706 103.515 217.81 106.131 216.975L106.131 216.975Z" fill="#3F3D56"/>
<path d="M106.131 245.303C138.058 235.117 173.677 237.814 203.924 252.164C212.554 256.238 220.704 261.258 228.225 267.132C230.353 268.802 233.38 265.815 231.23 264.127C203.449 242.58 168.543 232.344 133.525 235.476C123.837 236.343 114.272 238.264 105.001 241.206C102.406 242.034 103.515 246.138 106.131 245.303H106.131Z" fill="#3F3D56"/>
<path d="M221.161 69.5534V137.483C221.161 138.833 218.801 139.963 215.621 140.273C215.594 140.272 215.566 140.275 215.541 140.283C215.011 140.323 214.451 140.353 213.881 140.353C212.127 140.386 210.383 140.101 208.731 139.513C208.581 139.453 208.431 139.383 208.281 139.323C208.141 139.243 207.991 139.173 207.851 139.093C207.061 138.623 206.601 138.073 206.601 137.483V63.6934C211.606 65.2455 216.476 67.2054 221.161 69.5534Z" fill="#FBC705"/>
<path d="M251.679 85.3086H249.599V327.543H251.679V85.3086Z" fill="#E6E6E6"/>
<path d="M477.901 251.135C479.376 251 480.803 250.543 482.083 249.797C483.362 249.051 484.463 248.033 485.306 246.815C486.15 245.598 486.716 244.21 486.966 242.75C487.215 241.29 487.141 239.792 486.749 238.364L529.927 218.209L555.921 176.159L535.489 167.91L517.953 201.794L473.568 231.372C471.212 232.189 469.237 233.842 468.019 236.018C466.8 238.194 466.422 240.742 466.956 243.178C467.49 245.614 468.899 247.769 470.916 249.236C472.933 250.702 475.418 251.378 477.901 251.135V251.135Z" fill="#FFB6B6"/>
<path d="M571.956 135.877C571.956 135.877 577.045 137.538 571.46 147.409C566.988 155.31 545.207 200.826 536.317 209.763C537.253 211.262 537.663 213.029 537.483 214.787C537.304 216.545 536.544 218.193 535.325 219.471L514.802 203.185C514.41 197.262 518.33 196.674 520.653 196.874L525.374 180.141L541.842 138.862L568.299 134.611L571.956 135.877Z" fill="#FBC705"/>
<path d="M572.399 58.5082C573.37 54.585 580.409 51.6882 568.351 46.2109C565.424 44.8816 565.546 40.3038 563.07 38.2537C560.595 36.2036 556.969 35.2532 554.092 36.6861C551.523 37.9657 550.075 40.8615 549.767 43.7152C549.619 46.5874 549.95 49.4641 550.748 52.2273L550.514 52.5688C555.291 56.2239 560.067 59.879 564.844 63.5339C566.599 64.8771 568.894 66.2835 570.861 65.2757C573.088 64.1348 571.799 60.9371 572.399 58.5082Z" fill="#2F2E41"/>
</g>
<defs>
<clipPath id="clip0_96_2025">
<rect width="669" height="548" fill="white"/>
</clipPath>
</defs>
</svg>
